# AST/ASF file generated using VICON BodyLanguage
# -----------------------------------------------
:version 1.10
:name VICON
:units
  mass 1.0
  length 0.45
  angle deg
:documentation
   .ast/.asf automatically generated from VICON data using
   VICON BodyBuilder and BodyLanguage model FoxedUp or BRILLIANT.MOD
:root
   order TX TY TZ RX RY RZ
   axis XYZ
   position 0 0 0  
   orientation 0 0 0 
:bonedata
  begin
     id 1 
     name lhipjoint
     direction 0.573633 -0.743009 0.344793 
     length 2.46257 
     axis 0 0 0  XYZ
  end
  begin
     id 2 
     name lfemur
     direction 0.34202 -0.939693 0  
     length 7.3842  
     axis 0 0 20  XYZ
    dof rx ry rz
    limits (-160.0 20.0)
           (-70.0 70.0)
           (-60.0 70.0)
  end
  begin
     id 3 
     name ltibia
     direction 0.34202 -0.939693 0   
     length 7.50407   
     axis 0 0 20   XYZ
    dof rx
    limits (-10.0 170.0)
  end
  begin
     id 4 
     name lfoot
     direction 0.110749 -0.304281 0.946123   
     length 1.95925   
     axis -90 7.62852e-016 20   XYZ
    dof rx rz
    limits (-45.0 90.0)
           (-70.0 20.0)
  end
  begin
     id 5 
     name ltoes
     direction 1.53554e-011 -4.21843e-011 1   
     length 0.978318   
     axis -90 7.62852e-016 20   XYZ
    dof rx
    limits (-90.0 20.0)
  end
  begin
     id 6 
     name rhipjoint
     direction -0.488109 -0.791693 0.367385   
     length 2.31113  
     axis 0 0 0  XYZ 
  end
  begin
     id 7 
     name rfemur
     direction -0.34202 -0.939693 0   
     length 7.40965   
     axis 0 0 -20   XYZ
    dof rx ry rz
    limits (-160.0 20.0)
           (-70.0 70.0)
           (-70.0 60.0)
  end
  begin
     id 8 
     name rtibia
     direction -0.34202 -0.939693 0   
     length 7.55548   
     axis 0 0 -20   XYZ
    dof rx
    limits (-10.0 170.0)
 end
 begin
     id 9 
     name rfoot
     direction -0.127594 -0.350561 0.927808   
     length 2.07199  
     axis -90 -7.62852e-016 -20   XYZ
    dof rx rz
    limits (-45.0 90.0)
           (-20.0 70.0)
  end
  begin
     id 10 
     name rtoes
     direction -1.53542e-011 -4.21909e-011 1   
     length 1.02667   
     axis -90 -7.62852e-016 -20   XYZ
    dof rx
    limits (-90.0 20.0)
  end
  begin
     id 11 
     name lowerback
     direction -0.0103342 0.997298 -0.0727278   
     length 2.02836   
     axis 0 0 0   XYZ
    dof rx ry rz
    limits (-20.0 45.0)
           (-30.0 30.0)
           (-30.0 30.0)
  end
  begin
     id 12 
     name upperback
     direction 0.0171146 0.999786 -0.011606   
     length 2.03179   
     axis 0 0 0   XYZ
    dof rx ry rz
    limits (-20.0 45.0)
           (-30.0 30.0)
           (-30.0 30.0)
  end
  begin
     id 13 
     name thorax
     direction 0.0216927 0.999513 0.0224343   
     length 2.03882   
     axis 0 0 0   XYZ
    dof rx ry rz
    limits (-20.0 45.0)
           (-30.0 30.0)
           (-30.0 30.0)
  end
  begin
     id 14 
     name lowerneck
     direction 0.000989287 0.993907 0.110221   
     length 1.75428   
     axis 0 0 0   XYZ
    dof rx ry rz
    limits (-20.0 45.0)
           (-30.0 30.0)
           (-30.0 30.0)
  end
  begin
     id 15 
     name upperneck
     direction -0.0172474 0.994813 -0.100253   
     length 1.77058   
     axis 0 0 0   XYZ
    dof rx ry rz
    limits (-20.0 45.0)
           (-30.0 30.0)
           (-30.0 30.0)
  end
  begin
     id 16
     name head
     direction -0.00486455 0.99894 -0.0457663  
     length 1.77427  
     axis 0 0 0   XYZ
    dof rx ry rz
    limits (-20.0 45.0)
           (-30.0 30.0)
           (-30.0 30.0)
  end
  begin
     id 17 
     name lclavicle
     direction 0.927314 0.333734 -0.169441  
     length 3.97584  
     axis 0 0 0   XYZ
    dof ry rz
    limits (-20.0 10.0)
           (0.0 20.0)
  end
  begin
     id 18 
     name lhumerus
     direction 1 -4.48965e-011 -3.25313e-028   
     length 4.76468   
     axis 180 -30 -90   XYZ
    dof rx ry rz
    limits (-60.0 90.0)
           (-90.0 90.0)
           (-90.0 90.0)
  end
  begin
     id 19
     name lradius
     direction 1 -4.48969e-011 -2.8465e-028   
     length 3.52712   
     axis -180 -30 -90   XYZ
    dof rx
    limits (-10.0 170.0)
  end
  begin
     id 20
     name lwrist
     direction 1 -4.4896e-011 -7.78665e-028   
     length 1.76356   
     axis 1.91374e-015 90 90   XYZ
    dof ry
    limits (-180.0 0.0)
 end
  begin
     id 21 
     name lhand
     direction 1 -4.48959e-011 -1.55733e-027   
     length 0.859564   
     axis 9.9371e-016 90 90   XYZ
    dof rx rz
    limits (-90.0 90.0)
           (-45.0 45.0)
  end
  begin
     id 22 
     name lfingers
     direction 1 -4.48965e-011 -3.11466e-027   
     length 0.693002   
     axis 1.98742e-015 90 90   XYZ
    dof rx
    limits (0.0 90.0)
  end
  begin
     id 23
     name lthumb
     direction 0.707107 -6.34948e-011 0.707107   
     length 0.995017   
     axis -90 45 2.85299e-015   XYZ
    dof rx rz
    limits (-45.0 45.0)
           (-45.0 45.0)
  end
  begin
     id 24 
     name rclavicle
     direction -0.899388 0.348209 -0.264294   
     length 3.68366  
     axis 0 0 0   XYZ 
    dof ry rz
    limits (-10.0 20.0)
           (-20.0 0.0)
  end
  begin
     id 25 
     name rhumerus
     direction -1 -4.48965e-011 -3.01536e-027  
     length 4.90577   
     axis 180 30 90   XYZ
    dof rx ry rz
    limits (-90.0 60.0)
           (-90.0 90.0)
           (-90.0 90.0)
  end
  begin
     id 26 
     name rradius
     direction -1 -4.48966e-011 3.93291e-027   
     length 3.42692   
     axis -180 30 90   XYZ
    dof rx
    limits (-10.0 170.0)
  end
  begin
     id 27 
     name rwrist
     direction -1 -4.48969e-011 -7.78665e-028   
     length 1.71346   
     axis 1.91374e-015 -90 -90   XYZ
    dof ry
    limits (-180.0 0.0)
  end
  begin
     id 28
     name rhand
     direction -1 -4.48967e-011 -1.55733e-027   
     length 0.740957   
     axis 9.9371e-016 -90 -90   XYZ
    dof rx rz
    limits (-90.0 90.0)
           (-45.0 45.0)
  end
  begin
     id 29
     name rfingers
     direction -1 -4.48949e-011 -3.11466e-027   
     length 0.597378   
     axis 1.98742e-015 -90 -90   XYZ
    dof rx
    limits (0.0 90.0)
  end
  begin
     id 30
     name rthumb
     direction -0.707107 -6.34931e-011 0.707107   
     length 0.857719   
     axis -90 -45 -2.85299e-015   XYZ
    dof rx rz
    limits (-45.0 45.0)
           (-45.0 45.0)
  end
:hierarchy
  begin
    root lhipjoint rhipjoint lowerback
    lhipjoint lfemur
    lfemur ltibia
    ltibia lfoot
    lfoot ltoes
    rhipjoint rfemur
    rfemur rtibia
    rtibia rfoot
    rfoot rtoes
    lowerback upperback
    upperback thorax
    thorax lowerneck lclavicle rclavicle
    lowerneck upperneck
    upperneck head
    lclavicle lhumerus
    lhumerus lradius
    lradius lwrist
    lwrist lhand lthumb
    lhand lfingers
    rclavicle rhumerus
    rhumerus rradius
    rradius rwrist
    rwrist rhand rthumb
    rhand rfingers
  end

#!OML:ASF I:\AllaLogoMonkeySwing\Project 1\Capture day 1\Session 1\Subject1.ASF
:FULLY-SPECIFIED
:DEGREES
113
root -1.34106 16.3846 -4.06142 5.75955 4.64603 1.59723
lowerback 13.8521 1.18148 -4.23203
upperback -2.66795 0.945612 1.14237
thorax -10.8179 0.764792 3.42569
lowerneck -15.6469 -0.395774 -0.152338
upperneck 6.024 -0.711606 2.15576
head 4.33478 -0.216038 0.636454
rclavicle 4.67144e-015 4.37326e-015
rhumerus -5.45384 20.6545 -80.7477
rradius 95.7332
rwrist -5.37406
rhand -3.05371 -24.9529
rfingers 7.12502
rthumb 22.6624 -53.6423
lclavicle 4.67144e-015 4.37326e-015
lhumerus -21.3996 -19.7174 94.6006
lradius 118.822
lwrist 16.9643
lhand -18.4269 -35.8401
lfingers 7.12502
lthumb 7.85831 -6.00611
rfemur -13.1028 -4.13249 16.9314
rtibia 57.0178
rfoot -28.8984 -14.778
rtoes -1.42158
lfemur -14.2856 -0.762767 -15.0411
ltibia 56.0044
lfoot -26.5877 -6.07127
ltoes -37.0374
114
root -1.34056 16.8861 -3.14566 3.85277 4.88095 0.734195
lowerback 11.4414 0.79214 -3.38056
upperback -2.74333 0.675636 1.35344
thorax -9.44895 0.564463 3.23221
lowerneck -14.7201 -0.26565 -0.280267
upperneck 6.92061 -0.557427 2.44291
head 4.4652 -0.12468 0.75924
rclavicle -1.47101e-014 3.57812e-015
rhumerus -5.56623 22.6615 -76.8782
rradius 102.526
rwrist -3.91475
rhand -3.21215 -25.0408
rfingers 7.12502
rthumb 22.5104 -53.7487
lclavicle -1.47101e-014 3.57812e-015
lhumerus -22.3852 -21.6578 89.9179
lradius 124.185
lwrist 15.0702
lhand -17.6882 -38.1082
lfingers 7.12502
lthumb 8.57121 -8.30222
rfemur -6.1245 -4.28514 17.4215
rtibia 51.9418
rfoot -18.784 -11.3029
rtoes -1.81622
lfemur -7.22018 -0.804247 -13.9929
ltibia 50.3761
lfoot -17.8842 -8.92451
ltoes -42.4655
115
root -1.32043 17.501 -2.20764 2.77535 4.83098 0.774235
lowerback 8.38314 0.619649 -3.27255
upperback -3.1542 0.5547 1.38107
thorax -8.10065 0.48137 3.22205
lowerneck -14.4191 -0.507539 -0.570701
upperneck 9.58678 -0.845671 2.16361
head 5.25118 -0.277805 0.698509
rclavicle 1.01435e-014 9.54166e-015
rhumerus -6.96417 23.5781 -72.4998
rradius 109.059
rwrist -0.566909
rhand -3.15419 -24.9267
rfingers 7.12502
rthumb 22.566 -53.6279
lclavicle 1.01435e-014 9.54166e-015
lhumerus -23.8454 -22.9188 85.0621
lradius 128.316
lwrist 12.8456
lhand -16.6499 -39.5316
lfingers 7.12502
lthumb 9.57313 -9.76906
rfemur -1.14881 -4.37459 16.7889
rtibia 46.8746
rfoot -4.02207 -6.81749
rtoes -1.96262
lfemur -1.85504 -0.754924 -14.2589
ltibia 44.3126
lfoot -5.16523 -14.4319
ltoes -45.1964
116
root -1.27829 18.1599 -1.28104 1.79246 4.43983 1.06893
lowerback 6.25056 0.616523 -2.86234
upperback -4.01575 0.631263 1.10913
thorax -7.78171 0.496475 2.69599
lowerneck -14.8165 -0.896018 -1.34586
upperneck 13.8261 -1.33469 2.46729
head 6.67731 -0.498888 0.881494
rclavicle 1.10574e-014 -5.56597e-015
rhumerus -8.73933 23.6087 -67.9218
rradius 114.762
rwrist 4.27893
rhand -1.56391 -27.1688
rfingers 7.12502
rthumb 24.0916 -55.6764
lclavicle 1.10574e-014 -5.56597e-015
lhumerus -25.863 -23.4443 79.9495
lradius 131.734
lwrist 11.6439
lhand -15.6714 -39.6228
lfingers 7.12502
lthumb 10.5172 -9.90587
rfemur 2.15214 -3.48271 15.7034
rtibia 42.702
rfoot 11.3198 -3.5245
rtoes -1.50537
lfemur 2.3146 -2.3231 -15.3667
ltibia 39.1665
lfoot 10.0334 -18.5413
ltoes -46.5756
117
root -1.25234 18.7901 -0.418765 0.844028 4.2301 1.02219
lowerback 3.98894 0.594043 -2.18101
upperback -4.23592 0.700862 0.961583
thorax -6.69346 0.479321 2.15954
lowerneck -14.1191 -0.775084 -1.54305
upperneck 15.5539 -1.12645 2.24193
head 7.11079 -0.42667 0.867355
rclavicle -2.5345e-015 -8.34896e-015
rhumerus -8.60014 23.017 -62.1324
rradius 119.656
rwrist 3.37947
rhand -5.53658 -28.1318
rfingers 7.12502
rthumb 20.2778 -57.0933
lclavicle -2.5345e-015 -8.34896e-015
lhumerus -25.2921 -23.1512 73.1199
lradius 133.145
lwrist 12.886
lhand -14.5762 -39.1231
lfingers 7.12502
lthumb 11.5734 -9.46265
rfemur 4.10412 -2.09421 15.4678
rtibia 40.6266
rfoot 21.7017 -4.27884
rtoes 14.3647
lfemur 5.00448 -4.3371 -16.3023
ltibia 36.0261
lfoot 20.827 -18.1297
ltoes -40.6664
118
root -1.24611 19.375 0.365349 0.40368 3.8725 1.03466
lowerback 1.95056 0.621861 -1.76586
upperback -4.31153 0.793694 0.875846
thorax -5.59527 0.492992 1.84419
lowerneck -13.6974 -0.739686 -2.15109
upperneck 16.504 -0.997275 2.40289
head 7.34741 -0.387112 1.03712
rclavicle -1.39149e-015 -8.74653e-015
rhumerus -7.49638 20.7036 -56.2877
rradius 122.502
rwrist 3.51216
rhand -5.68256 -27.4209
rfingers 7.12502
rthumb 20.1375 -56.3973
lclavicle -1.39149e-015 -8.74653e-015
lhumerus -24.3058 -21.7393 66.258
lradius 132.483
lwrist 12.9128
lhand -16.043 -39.0659
lfingers 7.12502
lthumb 10.1586 -9.33116
rfemur 4.29951 -1.26457 15.444
rtibia 41.4058
rfoot 25.426 -5.60203
rtoes 19.4648
lfemur 6.00866 -4.58381 -17.0078
ltibia 35.8351
lfoot 25.7475 -21.8147
ltoes -32.7786
119
root -1.25301 19.8817 1.05885 0.853264 3.15867 2.18328
lowerback 0.571464 0.785853 -2.60614
upperback -4.7796 0.986472 0.466728
thorax -5.31777 0.617403 1.89152
lowerneck -13.1567 -0.635053 -2.33348
upperneck 17.0718 -0.769476 2.07096
head 7.43169 -0.323284 0.984774
rclavicle 4.62174e-015 1.19271e-015
rhumerus -6.4012 18.1623 -51.2656
rradius 124.567
rwrist -0.627638
rhand -6.44812 -28.5068
rfingers 7.12502
rthumb 19.4015 -57.5588
lclavicle 4.62174e-015 1.19271e-015
lhumerus -23.5158 -19.3358 60.1072
lradius 131.323
lwrist 12.508
lhand -15.8737 -37.9097
lfingers 7.12502
lthumb 10.322 -8.18301
rfemur 2.18037 -0.470916 14.2833
rtibia 44.6502
rfoot 25.8837 -7.61773
rtoes 24.1933
lfemur 4.68181 -4.2265 -18.86
ltibia 38.5072
lfoot 25.8349 -22.67
ltoes -30.6713
120
root -1.25428 20.3395 1.70424 0.760983 2.17759 2.71477
lowerback 0.535346 1.04219 -2.80784
upperback -4.99622 1.31264 0.288481
thorax -5.5445 0.789079 1.80016
lowerneck -12.8156 -0.450434 -2.64679
upperneck 17.5178 -0.452339 2.02393
head 7.51048 -0.198588 1.0557
rclavicle -1.56543e-014 -2.38542e-015
rhumerus -6.16445 15.7113 -47.5853
rradius 125.262
rwrist -2.6837
rhand -7.52508 -28.5612
rfingers 7.12502
rthumb 18.3658 -57.7142
lclavicle -1.56543e-014 -2.38542e-015
lhumerus -24.522 -16.4616 55.7087
lradius 130.554
lwrist 11.9905
lhand -14.3171 -37.2006
lfingers 7.12502
lthumb 11.8233 -7.5544
rfemur -0.186167 -0.0646813 13.705
rtibia 49.0669
rfoot 25.4234 -11.1494
rtoes 26.4048
lfemur 3.35747 -2.87698 -19.8724
ltibia 42.403
lfoot 23.3447 -23.9484
ltoes -35.3216
121
root -1.26219 20.7718 2.33676 -0.61773 1.34028 2.50447
lowerback 1.8666 1.20418 -2.43307
upperback -4.46009 1.51908 0.430504
thorax -5.74528 0.873488 1.70501
lowerneck -13.0704 -0.172861 -3.04821
upperneck 18.1005 -0.049129 2.36055
head 7.73688 -0.00137026 1.27901
rclavicle 4.52235e-015 -7.55382e-015
rhumerus -6.11626 13.3352 -45.2251
rradius 125.685
rwrist -6.05746
rhand -7.83831 -29.2594
rfingers 7.12502
rthumb 18.0644 -58.4405
lclavicle 4.52235e-015 -7.55382e-015
lhumerus -26.2962 -13.0027 52.7527
lradius 129.427
lwrist 12.5241
lhand -12.7886 -35.1713
lfingers 7.12502
lthumb 13.297 -5.61546
rfemur -1.25825 0.245543 14.0845
rtibia 53.2537
rfoot 24.5282 -16.4047
rtoes 30.7163
lfemur 3.02196 -1.48159 -19.9295
ltibia 46.1757
lfoot 24.2167 -23.7939
ltoes -32.6762
